<svg width="26" height="27" viewBox="0 0 26 27" fill="none" xmlns="http://www.w3.org/2000/svg">
<path fill-rule="evenodd" clip-rule="evenodd" d="M14.771 23.1454V14.5207H17.7213L18.164 11.1585H14.771V9.01226C14.771 8.03913 15.0454 7.37596 16.4697 7.37596L18.2834 7.37523V4.36796C17.9698 4.32799 16.8931 4.23633 15.64 4.23633C13.0234 4.23633 11.232 5.80291 11.232 8.67927V11.1585H8.27271V14.5207H11.232V23.1454H14.771Z" fill="#3C5557"/>
<mask id="mask0_127_74" style="mask-type:luminance" maskUnits="userSpaceOnUse" x="8" y="4" width="11" height="20">
<path fill-rule="evenodd" clip-rule="evenodd" d="M14.771 23.1454V14.5207H17.7213L18.164 11.1585H14.771V9.01226C14.771 8.03913 15.0454 7.37596 16.4697 7.37596L18.2834 7.37523V4.36796C17.9698 4.32799 16.8931 4.23633 15.64 4.23633C13.0234 4.23633 11.232 5.80291 11.232 8.67927V11.1585H8.27271V14.5207H11.232V23.1454H14.771Z" fill="white"/>
</mask>
<g mask="url(#mask0_127_74)">
</g>
</svg>
