<svg width="42" height="40" viewBox="0 0 42 40" fill="none" xmlns="http://www.w3.org/2000/svg">
<path d="M39.9764 12.8534C39.4219 6.73604 35.0915 2.29736 29.6706 2.29736C26.0626 2.29736 22.7548 4.24277 20.8958 7.35371C19.0537 4.19961 15.8819 2.29736 12.3311 2.29736C6.90939 2.29736 2.57961 6.73613 2.02482 12.8534C1.97912 13.1252 1.80002 14.5447 2.34709 16.8657C3.13742 20.2127 4.96076 23.256 7.62219 25.6625L20.888 37.7023L34.38 25.6659C37.0403 23.2557 38.864 20.2127 39.6543 16.8656C40.2014 14.5484 40.0193 13.1252 39.9764 12.8534Z" stroke="#424143" stroke-width="3" stroke-miterlimit="10"/>
<path d="M7.81763 14.0727C7.81763 10.8401 10.4469 8.21191 13.6791 8.21191" stroke="#424143" stroke-width="3" stroke-miterlimit="10"/>
</svg>
