<svg width="62" height="39" viewBox="0 0 62 39" fill="none" xmlns="http://www.w3.org/2000/svg">
<path d="M31 11.8081V27.2134" stroke="#424143" stroke-width="3" stroke-miterlimit="10"/>
<path d="M23.2974 19.5107H38.7027" stroke="#424143" stroke-width="3" stroke-miterlimit="10"/>
<path d="M60 19.5107C60 19.5107 47.0163 37.0214 31 37.0214C14.9837 37.0214 2 19.5107 2 19.5107C2 19.5107 14.9837 2 31 2C47.0163 2 60 19.5107 60 19.5107Z" stroke="#424143" stroke-width="3" stroke-miterlimit="10"/>
<path d="M31 33.5335C38.7447 33.5335 45.0229 27.2553 45.0229 19.5107C45.0229 11.766 38.7447 5.48779 31 5.48779C23.2554 5.48779 16.9772 11.766 16.9772 19.5107C16.9772 27.2553 23.2554 33.5335 31 33.5335Z" stroke="#424143" stroke-width="3" stroke-miterlimit="10"/>
</svg>
