<?xml version="1.0" encoding="utf-8"?>
<!-- Generator: Adobe Illustrator 16.0.0, SVG Export Plug-In . SVG Version: 6.00 Build 0)  -->
<!DOCTYPE svg PUBLIC "-//W3C//DTD SVG 1.1//EN" "http://www.w3.org/Graphics/SVG/1.1/DTD/svg11.dtd">
<svg version="1.1" id="Capa_1" xmlns="http://www.w3.org/2000/svg" xmlns:xlink="http://www.w3.org/1999/xlink" x="0px" y="0px"
	 width="512px" height="512px" viewBox="0 0 512 512" enable-background="new 0 0 512 512" xml:space="preserve">
<line fill="none" stroke="#424143" stroke-width="14.1732" stroke-miterlimit="10" x1="256" y1="144.458" x2="256" y2="273.542"/>
<line fill="none" stroke="#424143" stroke-width="14.1732" stroke-miterlimit="10" x1="191.458" y1="209" x2="320.542" y2="209"/>
<g>
	<path fill="none" stroke="#424143" stroke-width="14.1732" stroke-miterlimit="10" d="M255.602,51.6
		C167.598,51.6,96,123.197,96,211.201c0,35.046,11.145,68.309,32.234,96.188c17.95,23.734,42.555,42.188,70.164,52.836v42.977
		c0,15.543,11.282,28.5,26.082,31.117c2.618,14.801,15.579,26.082,31.122,26.082c15.542,0,28.5-11.281,31.117-26.082
		c14.805-2.617,26.082-15.574,26.082-31.117v-42.973c27.605-10.648,52.207-29.098,70.156-52.828
		c21.094-27.883,32.242-61.149,32.242-96.199C415.199,123.197,343.606,51.6,255.602,51.6L255.602,51.6z M373.387,300.162"/>
	<path fill="none" stroke="#424143" stroke-width="14.1732" stroke-miterlimit="10" d="M286.106,93.04 M309.192,88.346
		c-6.484-2.832-13.246-5.16-20.094-6.927 M286.106,93.04"/>
	<path fill="none" stroke="#424143" stroke-width="14.1732" stroke-miterlimit="10" d="M367.528,137.494
		c-8.527-12.922-19.129-24.191-31.516-33.497l0,0 M336.012,103.997"/>
</g>
<line fill="none" stroke="#424143" stroke-width="14.1732" stroke-miterlimit="10" x1="312.801" y1="359.5" x2="195.5" y2="359.5"/>
<line fill="none" stroke="#424143" stroke-width="14.1732" stroke-miterlimit="10" x1="224.48" y1="434.318" x2="283.5" y2="434.318"/>
<line fill="none" stroke="#424143" stroke-width="14.1732" stroke-miterlimit="10" x1="314.5" y1="387.5" x2="287.5" y2="387.5"/>
<line fill="none" stroke="#424143" stroke-width="14.1732" stroke-miterlimit="10" x1="268.5" y1="387.5" x2="197.5" y2="387.5"/>
</svg>
