<svg width="270" height="141" viewBox="0 0 270 141" fill="none" xmlns="http://www.w3.org/2000/svg">
<path d="M30.7803 25V24.64L31.5363 24.352C32.3043 24.04 32.6883 23.428 32.6883 22.516V3.724C32.6883 2.764 32.3043 2.152 31.5363 1.888L30.7803 1.6V1.24H40.2843C42.8283 1.24 45.0123 1.72 46.8363 2.68C48.6843 3.616 50.1003 4.972 51.0843 6.748C52.0923 8.5 52.5963 10.612 52.5963 13.084C52.5963 15.604 52.0563 17.752 50.9763 19.528C49.8963 21.304 48.3843 22.66 46.4403 23.596C44.5203 24.532 42.2523 25 39.6363 25H30.7803ZM38.0883 24.28H39.6363C41.3643 24.28 42.7563 23.944 43.8123 23.272C44.8683 22.576 45.6363 21.424 46.1163 19.816C46.6203 18.184 46.8723 15.952 46.8723 13.12C46.8723 10.288 46.6203 8.068 46.1163 6.46C45.6363 4.828 44.8803 3.676 43.8483 3.004C42.8163 2.308 41.4603 1.96 39.7803 1.96H38.0883V24.28ZM69.8037 25V24.64L70.6317 24.316C71.0397 24.148 71.3157 23.932 71.4597 23.668C71.6277 23.38 71.7117 22.996 71.7117 22.516V3.724C71.7117 3.244 71.6397 2.872 71.4957 2.608C71.3757 2.32 71.0877 2.092 70.6317 1.924L69.8037 1.6V1.24H87.0477L87.2637 6.784H86.9037L85.3557 3.4C85.1397 2.968 84.9117 2.62 84.6717 2.356C84.4317 2.092 84.0717 1.96 83.5917 1.96H77.1117V12.364H80.9637C81.4437 12.364 81.8037 12.244 82.0437 12.004C82.3077 11.74 82.5357 11.392 82.7277 10.96L83.4477 9.52H83.8077V16H83.4477L82.7277 14.488C82.5117 14.056 82.2837 13.72 82.0437 13.48C81.8037 13.216 81.4437 13.084 80.9637 13.084H77.1117V24.28H84.3837C84.8637 24.28 85.2357 24.16 85.4997 23.92C85.7637 23.656 85.9797 23.296 86.1477 22.84L87.6237 19.456H87.9837L87.7677 25H69.8037ZM105.92 25V24.64L107.108 24.28C107.54 24.16 107.852 23.932 108.044 23.596C108.236 23.236 108.332 22.816 108.332 22.336V5.02C108.068 4.444 107.852 4.012 107.684 3.724C107.54 3.436 107.372 3.196 107.18 3.004C106.988 2.788 106.724 2.524 106.388 2.212L105.776 1.6V1.24H112.148L124.1 17.548V3.976C124.1 3.496 124.016 3.064 123.848 2.68C123.704 2.296 123.392 2.044 122.912 1.924L121.724 1.6V1.24H126.872V1.6L125.9 1.924C125.468 2.068 125.204 2.32 125.108 2.68C125.012 3.04 124.964 3.46 124.964 3.94V25.108H122.948L109.196 6.208V22.336C109.196 22.816 109.268 23.224 109.412 23.56C109.556 23.896 109.856 24.136 110.312 24.28L111.392 24.64V25H105.92ZM149.159 25V24.64L150.635 24.28C151.619 24.064 152.111 23.464 152.111 22.48V1.96H149.051C148.163 1.96 147.527 2.2 147.143 2.68C146.759 3.136 146.351 3.772 145.919 4.588L144.623 7.108H144.263L144.443 1.24H165.215L165.359 7.108H164.999L163.703 4.588C163.295 3.772 162.899 3.136 162.515 2.68C162.131 2.2 161.495 1.96 160.607 1.96H157.547V22.48C157.547 23.464 158.039 24.064 159.023 24.28L160.499 24.64V25H149.159ZM181.765 25V24.64L182.665 24.316C183.145 24.124 183.517 23.896 183.781 23.632C184.045 23.344 184.261 22.948 184.429 22.444L191.845 1.168H194.905L202.213 22.588C202.405 23.116 202.621 23.524 202.861 23.812C203.101 24.076 203.473 24.304 203.977 24.496L204.409 24.64V25H195.265V24.64L195.805 24.46C196.309 24.268 196.609 24.004 196.705 23.668C196.825 23.308 196.813 22.888 196.669 22.408L194.977 17.224H186.985L185.257 22.3C185.089 22.828 185.029 23.248 185.077 23.56C185.149 23.872 185.437 24.124 185.941 24.316L186.733 24.64V25H181.765ZM187.237 16.504H194.761L191.125 5.308L187.237 16.504ZM221.362 25V24.64L222.118 24.352C222.622 24.16 222.934 23.932 223.054 23.668C223.198 23.38 223.27 22.996 223.27 22.516V3.724C223.27 3.244 223.198 2.86 223.054 2.572C222.91 2.284 222.598 2.056 222.118 1.888L221.362 1.6V1.24H230.542V1.6L229.894 1.888C229.438 2.056 229.126 2.296 228.958 2.608C228.79 2.896 228.706 3.28 228.706 3.76V24.28H234.25C235.138 24.28 235.786 24.064 236.194 23.632C236.626 23.2 237.034 22.576 237.418 21.76L238.822 18.736H239.182L238.858 25H221.362ZM54.9768 74.648C52.6488 74.648 50.5368 74.18 48.6408 73.244C46.7688 72.284 45.2808 70.868 44.1768 68.996C43.0728 67.124 42.5208 64.832 42.5208 62.12C42.5208 60.056 42.8568 58.244 43.5288 56.684C44.2008 55.124 45.1128 53.816 46.2648 52.76C47.4408 51.704 48.7848 50.912 50.2968 50.384C51.8328 49.856 53.4528 49.592 55.1568 49.592C56.5248 49.592 57.7848 49.748 58.9368 50.06C60.0888 50.372 61.1688 50.804 62.1768 51.356L62.3208 55.784H61.9608L60.1608 52.904C59.9208 52.448 59.6568 52.04 59.3688 51.68C59.0808 51.296 58.7208 51.008 58.2888 50.816C57.9288 50.648 57.5688 50.528 57.2088 50.456C56.8728 50.36 56.4408 50.312 55.9128 50.312C54.5208 50.312 53.2488 50.684 52.0968 51.428C50.9688 52.172 50.0568 53.408 49.3608 55.136C48.6888 56.84 48.3528 59.18 48.3528 62.156C48.3528 65.108 48.6768 67.448 49.3248 69.176C49.9728 70.88 50.8488 72.104 51.9528 72.848C53.0808 73.568 54.3408 73.928 55.7328 73.928C56.5008 73.928 57.1128 73.88 57.5688 73.784C58.0248 73.664 58.4808 73.496 58.9368 73.28C59.3928 73.088 59.7408 72.812 59.9808 72.452C60.2208 72.068 60.4368 71.66 60.6288 71.228L62.2128 67.7H62.5728L62.4648 72.848C61.4568 73.376 60.3288 73.808 59.0808 74.144C57.8328 74.48 56.4648 74.648 54.9768 74.648ZM79.9639 74V73.64L80.7199 73.352C81.2239 73.16 81.5359 72.932 81.6559 72.668C81.7999 72.38 81.8719 71.996 81.8719 71.516V52.724C81.8719 52.244 81.7999 51.86 81.6559 51.572C81.5119 51.284 81.1999 51.056 80.7199 50.888L79.9639 50.6V50.24H89.1439V50.6L88.4959 50.888C88.0399 51.056 87.7279 51.296 87.5599 51.608C87.3919 51.896 87.3079 52.28 87.3079 52.76V73.28H92.8519C93.7399 73.28 94.3879 73.064 94.7959 72.632C95.2279 72.2 95.6359 71.576 96.0199 70.76L97.4239 67.736H97.7839L97.4599 74H79.9639ZM115.085 74V73.64L115.805 73.352C116.285 73.184 116.597 72.956 116.741 72.668C116.909 72.38 116.993 71.996 116.993 71.516V52.724C116.993 52.244 116.921 51.86 116.777 51.572C116.633 51.284 116.309 51.056 115.805 50.888L115.085 50.6V50.24H124.337V50.6L123.617 50.888C123.137 51.056 122.813 51.284 122.645 51.572C122.501 51.86 122.429 52.244 122.429 52.724V71.516C122.429 71.996 122.501 72.38 122.645 72.668C122.813 72.932 123.137 73.16 123.617 73.352L124.337 73.64V74H115.085ZM142.061 74V73.64L143.249 73.28C143.681 73.16 143.993 72.932 144.185 72.596C144.377 72.236 144.473 71.816 144.473 71.336V54.02C144.209 53.444 143.993 53.012 143.825 52.724C143.681 52.436 143.513 52.196 143.321 52.004C143.129 51.788 142.865 51.524 142.529 51.212L141.917 50.6V50.24H148.289L160.241 66.548V52.976C160.241 52.496 160.157 52.064 159.989 51.68C159.845 51.296 159.533 51.044 159.053 50.924L157.865 50.6V50.24H163.013V50.6L162.041 50.924C161.609 51.068 161.345 51.32 161.249 51.68C161.153 52.04 161.105 52.46 161.105 52.94V74.108H159.089L145.337 55.208V71.336C145.337 71.816 145.409 72.224 145.553 72.56C145.697 72.896 145.997 73.136 146.453 73.28L147.533 73.64V74H142.061ZM180.792 74V73.64L181.512 73.352C181.992 73.184 182.304 72.956 182.448 72.668C182.616 72.38 182.7 71.996 182.7 71.516V52.724C182.7 52.244 182.628 51.86 182.484 51.572C182.34 51.284 182.016 51.056 181.512 50.888L180.792 50.6V50.24H190.044V50.6L189.324 50.888C188.844 51.056 188.52 51.284 188.352 51.572C188.208 51.86 188.136 52.244 188.136 52.724V71.516C188.136 71.996 188.208 72.38 188.352 72.668C188.52 72.932 188.844 73.16 189.324 73.352L190.044 73.64V74H180.792ZM219.684 74.648C217.356 74.648 215.244 74.18 213.348 73.244C211.476 72.284 209.988 70.868 208.884 68.996C207.78 67.124 207.228 64.832 207.228 62.12C207.228 60.056 207.564 58.244 208.236 56.684C208.908 55.124 209.82 53.816 210.972 52.76C212.148 51.704 213.492 50.912 215.004 50.384C216.54 49.856 218.16 49.592 219.864 49.592C221.232 49.592 222.492 49.748 223.644 50.06C224.796 50.372 225.876 50.804 226.884 51.356L227.028 55.784H226.668L224.868 52.904C224.628 52.448 224.364 52.04 224.076 51.68C223.788 51.296 223.428 51.008 222.996 50.816C222.636 50.648 222.276 50.528 221.916 50.456C221.58 50.36 221.148 50.312 220.62 50.312C219.228 50.312 217.956 50.684 216.804 51.428C215.676 52.172 214.764 53.408 214.068 55.136C213.396 56.84 213.06 59.18 213.06 62.156C213.06 65.108 213.384 67.448 214.032 69.176C214.68 70.88 215.556 72.104 216.66 72.848C217.788 73.568 219.048 73.928 220.44 73.928C221.208 73.928 221.82 73.88 222.276 73.784C222.732 73.664 223.188 73.496 223.644 73.28C224.1 73.088 224.448 72.812 224.688 72.452C224.928 72.068 225.144 71.66 225.336 71.228L226.92 67.7H227.28L227.172 72.848C226.164 73.376 225.036 73.808 223.788 74.144C222.54 74.48 221.172 74.648 219.684 74.648Z" fill="#1D1C1C"/>
<rect y="100" width="6" height="41" fill="#1D1C1C"/>
<rect y="99" width="270" height="2" fill="#1D1C1C"/>
<path d="M27.1143 136.728C25.155 136.728 23.3942 136.442 21.8317 135.871C20.2693 135.301 19.054 134.705 18.186 134.085L18 128.91L18.4092 128.836C18.9052 130.126 19.5563 131.324 20.3623 132.428C21.1683 133.532 22.1913 134.413 23.4314 135.071C24.6714 135.729 26.1471 136.058 27.8583 136.058C28.8504 136.058 29.768 135.853 30.6112 135.443C31.4544 135.034 32.1303 134.457 32.6387 133.712C33.1471 132.968 33.4013 132.099 33.4013 131.107C33.4013 130.164 33.1533 129.345 32.6573 128.65C32.1613 127.955 31.5164 127.347 30.7228 126.826C29.9292 126.305 29.0922 125.852 28.2117 125.467C27.3313 125.082 26.4943 124.729 25.7007 124.406C24.2374 123.81 22.9664 123.209 21.8875 122.601C20.8087 121.993 19.9779 121.261 19.395 120.404C18.8122 119.548 18.5208 118.462 18.5208 117.147C18.5208 115.683 18.899 114.424 19.6555 113.369C20.4119 112.314 21.4721 111.495 22.8362 110.912C24.2002 110.329 25.7875 110.037 27.5979 110.037C29.2844 110.037 30.7352 110.223 31.9505 110.596C33.1657 110.968 34.1329 111.353 34.8521 111.75L35.001 116.068L34.6289 116.179C33.9345 114.566 32.9239 113.239 31.597 112.196C30.2702 111.154 28.5403 110.633 26.4075 110.633C25.4154 110.633 24.4916 110.825 23.636 111.21C22.7804 111.594 22.0983 112.147 21.5899 112.866C21.0815 113.586 20.8273 114.479 20.8273 115.547C20.8273 116.415 21.0381 117.172 21.4597 117.817C21.8813 118.462 22.4393 119.021 23.1338 119.492C23.8282 119.964 24.5846 120.38 25.403 120.739C26.2215 121.099 27.0275 121.44 27.8211 121.763C29.21 122.309 30.512 122.892 31.7272 123.513C32.9425 124.133 33.9283 124.89 34.6847 125.783C35.4412 126.677 35.8194 127.831 35.8194 129.245C35.8194 130.784 35.3978 132.118 34.5545 133.247C33.7113 134.376 32.6263 135.239 31.2994 135.834C29.9726 136.43 28.5775 136.728 27.1143 136.728Z" fill="#1D1C1C"/>
<path d="M62.9774 136.728C61.6382 136.728 60.3423 136.554 59.0899 136.206C57.8375 135.859 56.7152 135.301 55.7232 134.531C54.7311 133.762 53.9375 132.738 53.3423 131.46C52.7471 130.182 52.4495 128.613 52.4495 126.751V115.025C52.4495 113.487 52.3441 112.438 52.1333 111.88C51.9225 111.322 51.5318 110.955 50.9614 110.782V110.298H56.988V110.782C56.4424 110.955 56.058 111.322 55.8348 111.88C55.6116 112.438 55.5 113.487 55.5 115.025V126.528C55.5 128.836 55.8844 130.679 56.6532 132.056C57.422 133.433 58.4637 134.426 59.7781 135.034C61.0926 135.642 62.5558 135.946 64.1679 135.946C64.9615 135.946 65.7923 135.797 66.6603 135.499C67.5284 135.201 68.3406 134.693 69.097 133.973C69.8534 133.253 70.4673 132.285 70.9385 131.069C71.4097 129.853 71.6453 128.34 71.6453 126.528V116.514C71.6453 115.1 71.5461 114.002 71.3477 113.22C71.1493 112.438 70.8641 111.874 70.4921 111.526C70.12 111.179 69.6612 110.931 69.1156 110.782V110.298H73.7286V110.782C73.1829 110.955 72.7985 111.322 72.5753 111.88C72.3521 112.438 72.2405 113.487 72.2405 115.025V126.416C72.2405 128.898 71.8251 130.896 70.9943 132.409C70.1635 133.923 69.0536 135.021 67.6648 135.704C66.2759 136.386 64.7135 136.728 62.9774 136.728Z" fill="#1D1C1C"/>
<path d="M89.2417 136.355V135.871C89.8121 135.698 90.2027 135.325 90.4135 134.755C90.6243 134.184 90.7297 133.142 90.7297 131.628V115.025C90.7297 113.487 90.6243 112.438 90.4135 111.88C90.2027 111.322 89.8121 110.955 89.2417 110.782V110.298H95.2683V110.782C94.6979 110.955 94.3073 111.322 94.0965 111.88C93.8856 112.438 93.7802 113.487 93.7802 115.025V134.085C93.7802 135.201 94.3383 135.76 95.4543 135.76H99.8812C101.667 135.76 103.037 135.493 103.992 134.959C104.947 134.426 105.747 133.464 106.391 132.074L106.801 132.149L106.54 136.355H89.2417Z" fill="#1D1C1C"/>
<path d="M127.114 136.355V135.871C127.684 135.698 128.075 135.325 128.286 134.755C128.496 134.184 128.589 133.142 128.565 131.628V124.629L122.947 114.43C122.228 113.115 121.595 112.221 121.05 111.75C120.504 111.278 120.033 110.955 119.636 110.782V110.298H125.514V110.782C124.968 110.955 124.782 111.278 124.956 111.75C125.13 112.221 125.588 113.115 126.332 114.43L131.503 123.662L136.712 114.43C137.356 113.288 137.679 112.426 137.679 111.843C137.679 111.259 137.319 110.906 136.6 110.782V110.298H141.027V110.782C140.531 110.955 139.985 111.278 139.39 111.75C138.795 112.221 138.125 113.115 137.381 114.43L131.689 124.555V131.628C131.689 133.142 131.795 134.184 132.006 134.755C132.216 135.325 132.607 135.698 133.177 135.871V136.355H127.114Z" fill="#1D1C1C"/>
<path d="M154.979 136.355V135.871C155.549 135.698 155.94 135.325 156.15 134.755C156.361 134.184 156.467 133.142 156.467 131.628V115.025C156.467 113.487 156.361 112.438 156.15 111.88C155.94 111.322 155.549 110.955 154.979 110.782V110.298H161.005V110.782C160.435 110.955 160.044 111.322 159.833 111.88C159.622 112.438 159.517 113.487 159.517 115.025V122.247H173.691V115.025C173.691 113.487 173.585 112.438 173.375 111.88C173.164 111.322 172.773 110.955 172.203 110.782V110.298H178.229V110.782C177.659 110.955 177.268 111.322 177.057 111.88C176.847 112.438 176.741 113.487 176.741 115.025V131.628C176.741 133.142 176.847 134.184 177.057 134.755C177.268 135.325 177.659 135.698 178.229 135.871V136.355H172.203V135.871C172.773 135.698 173.164 135.325 173.375 134.755C173.585 134.184 173.691 133.142 173.691 131.628V122.843H159.517V131.628C159.517 133.142 159.622 134.184 159.833 134.755C160.044 135.325 160.435 135.698 161.005 135.871V136.355H154.979Z" fill="#1D1C1C"/>
<path d="M191.994 136.355V135.871C192.514 135.698 193.023 135.356 193.519 134.848C194.015 134.339 194.548 133.377 195.119 131.963L202.447 113.797C202.67 113.201 202.646 112.618 202.373 112.047L202.038 111.266L204.828 110L213.98 132C214.55 133.39 215.065 134.339 215.523 134.848C215.982 135.356 216.41 135.698 216.807 135.871V136.355H211.041V135.871C211.611 135.698 211.847 135.356 211.747 134.848C211.648 134.339 211.301 133.39 210.706 132L208.437 126.528H197.946L195.751 131.963C194.809 134.32 194.957 135.623 196.197 135.871V136.355H191.994ZM198.169 125.97H208.213L203.117 113.723L198.169 125.97Z" fill="#1D1C1C"/>
<path d="M250.549 136.653L233.027 113.834V130.139C233.027 131.553 233.126 132.645 233.325 133.415C233.523 134.184 233.814 134.748 234.199 135.108C234.583 135.468 235.048 135.723 235.594 135.871V136.355H230.944V135.871C231.514 135.698 231.905 135.325 232.116 134.755C232.326 134.184 232.432 133.142 232.432 131.628V115.025C232.432 113.487 232.295 112.438 232.023 111.88C231.75 111.322 231.241 110.955 230.497 110.782V110.298H234.143L250.4 131.367V116.514C250.4 115.1 250.301 114.002 250.102 113.22C249.904 112.438 249.619 111.874 249.247 111.526C248.875 111.179 248.404 110.931 247.833 110.782V110.298H252.52V110.782C251.95 110.955 251.559 111.322 251.349 111.88C251.138 112.438 251.032 113.487 251.032 115.025V136.653H250.549Z" fill="#1D1C1C"/>
</svg>
