<?xml version="1.0" encoding="UTF-8"?>
<!-- Generated by Pixelmator Pro 3.6.10 -->
<svg width="1563" height="1562" viewBox="0 0 1563 1562" xmlns="http://www.w3.org/2000/svg">
    <path id="Path" fill="#ffffff" stroke="none" visibility="hidden" d="M -0 -1 L 1562.999878 -1 L 1562.999878 1562 L -0 1562 Z"/>
    <path id="path1" fill="#ffffff" stroke="none" visibility="hidden" d="M -0 -1 L 1562.999878 -1 L 1562.999878 1562 L -0 1562 Z"/>
    <text id="Text" visibility="hidden" xml:space="preserve" x="549" y="1238" font-family="DM Serif Display" font-size="173.228409" fill="#000000">T</text>
    <g id="Group">
        <path id="path2" fill="none" stroke="#000000" stroke-width="9.377999" visibility="hidden" d="M 87.966507 828.801758 L 1376.526611 827.153687"/>
        <g id="g1">
            <path id="path3" fill="#000000" stroke="none" d="M 285.386719 1006.938416 C 277.19869 1006.938416 269.839813 1005.74648 263.310089 1003.36261 C 256.780385 1000.978739 251.701726 998.491231 248.074112 995.900085 L 247.296768 974.289856 L 249.006927 973.978943 C 251.079854 979.36851 253.800568 984.369425 257.169067 988.981689 C 260.537557 993.593953 264.812958 997.273397 269.99527 1000.02002 C 275.177582 1002.766642 281.344533 1004.139954 288.496124 1004.139954 C 292.641958 1004.139954 296.476868 1003.284871 300.000854 1001.574707 C 303.524821 999.864543 306.349172 997.454773 308.473907 994.345398 C 310.598663 991.236023 311.661041 987.608398 311.661041 983.462524 C 311.661041 979.523966 310.624573 976.103658 308.551636 973.201599 C 306.478719 970.2995 303.783925 967.760152 300.467255 965.583557 C 297.150564 963.407003 293.652507 961.515462 289.973083 959.908936 C 286.29364 958.30245 282.795583 956.8255 279.478912 955.478088 C 273.36378 952.99058 268.05191 950.477153 263.543304 947.937805 C 259.034698 945.398499 255.562551 942.340942 253.126862 938.765137 C 250.691182 935.189331 249.473343 930.654806 249.473343 925.16156 C 249.473343 919.046448 251.053945 913.786418 254.215149 909.38147 C 257.376363 904.976481 261.807241 901.556152 267.507782 899.120483 C 273.208303 896.684814 279.841654 895.46698 287.407837 895.46698 C 294.45577 895.46698 300.519073 896.244324 305.597748 897.799011 C 310.676402 899.353699 314.718597 900.960205 317.724335 902.61853 L 318.346222 920.652954 L 316.791534 921.119385 C 313.889435 914.382365 309.665853 908.837301 304.120789 904.484192 C 298.575704 900.131042 291.346385 897.954468 282.432831 897.954468 C 278.286977 897.954468 274.426147 898.757731 270.850342 900.364258 C 267.274556 901.970744 264.424296 904.276855 262.299561 907.282593 C 260.174805 910.28833 259.112427 914.019592 259.112427 918.476379 C 259.112427 922.104024 259.993418 925.265238 261.755402 927.960022 C 263.517385 930.654806 265.849426 932.986837 268.751526 934.956116 C 271.653625 936.925395 274.81483 938.661479 278.235138 940.164368 C 281.655467 941.667216 285.023966 943.092346 288.340637 944.439758 C 294.144836 946.719991 299.586263 949.15568 304.664917 951.746826 C 309.743571 954.337972 313.863505 957.499186 317.024719 961.230469 C 320.185933 964.961711 321.766541 969.78125 321.766541 975.689087 C 321.766541 982.115153 320.004557 987.686137 316.480591 992.402039 C 312.956624 997.11794 308.422099 1000.719645 302.877014 1003.207153 C 297.33195 1005.694661 291.501851 1006.938416 285.386719 1006.938416 Z"/>
            <path id="path4" fill="#000000" stroke="none" d="M 435.263794 1006.938416 C 429.666911 1006.938416 424.251404 1006.212891 419.017273 1004.761841 C 413.783142 1003.310791 409.09315 1000.978739 404.947296 997.765686 C 400.801442 994.552673 397.484762 990.277283 394.997253 984.939514 C 392.509766 979.601746 391.266022 973.046122 391.266022 965.272644 L 391.266022 916.299805 C 391.266022 909.873779 390.825521 905.494731 389.944519 903.162659 C 389.063517 900.830627 387.431091 899.30186 385.047241 898.576355 L 385.047241 896.555237 L 410.233246 896.555237 L 410.233246 898.576355 C 407.953033 899.30186 406.346517 900.830627 405.413696 903.162659 C 404.480896 905.494731 404.014496 909.873779 404.014496 916.299805 L 404.014496 964.339844 C 404.014496 973.978923 405.621012 981.674642 408.834045 987.427002 C 412.047058 993.179362 416.400197 997.325216 421.893463 999.864563 C 427.386709 1002.40387 433.501831 1003.673523 440.238831 1003.673523 C 443.555501 1003.673523 447.027649 1003.051656 450.655273 1001.807922 C 454.282878 1000.564148 457.677287 998.439392 460.838501 995.433655 C 463.999695 992.427917 466.564931 988.385722 468.53421 983.307068 C 470.503489 978.228414 471.488129 971.906006 471.488129 964.339844 L 471.488129 922.518616 C 471.488129 916.610779 471.073547 912.024434 470.244385 908.759583 C 469.415222 905.494731 468.223287 903.13678 466.668579 901.68573 C 465.113892 900.23468 463.196442 899.198222 460.916229 898.576355 L 460.916229 896.555237 L 480.194427 896.555237 L 480.194427 898.576355 C 477.914195 899.30186 476.307678 900.830627 475.374878 903.162659 C 474.442057 905.494731 473.975647 909.873779 473.975647 916.299805 L 473.975647 963.873413 C 473.975647 974.238037 472.239573 982.581563 468.767426 988.903992 C 465.295278 995.226379 460.657115 999.812703 454.852936 1002.662964 C 449.048737 1005.513265 442.519023 1006.938416 435.263794 1006.938416 Z"/>
            <path id="path5" fill="#000000" stroke="none" d="M 545.026123 1005.383728 L 545.026123 1003.36261 C 547.409993 1002.637065 549.042419 1001.082377 549.923401 998.698547 C 550.804382 996.314677 551.244873 991.961528 551.244873 985.639099 L 551.244873 916.299805 C 551.244873 909.873779 550.804382 905.494731 549.923401 903.162659 C 549.042419 900.830627 547.409993 899.30186 545.026123 898.576355 L 545.026123 896.555237 L 570.212158 896.555237 L 570.212158 898.576355 C 567.828288 899.30186 566.195862 900.830627 565.31488 903.162659 C 564.433858 905.494731 563.993347 909.873779 563.993347 916.299805 L 563.993347 995.900085 C 563.993347 1000.564148 566.325399 1002.896179 570.989502 1002.896179 L 589.490295 1002.896179 C 596.95282 1002.896179 602.679281 1001.781982 606.669678 999.553589 C 610.660034 997.325195 614.002625 993.308919 616.697449 987.504761 L 618.407593 987.815674 L 617.319336 1005.383728 Z"/>
            <path id="path6" fill="#000000" stroke="none" d="M 703.298706 1005.383728 L 703.298706 1003.36261 C 705.682576 1002.637065 707.315002 1001.082377 708.195984 998.698547 C 709.076965 996.314677 709.465637 991.961528 709.362 985.639099 L 709.362 956.410889 L 685.886169 913.812317 C 682.880432 908.319071 680.237447 904.587809 677.957214 902.61853 C 675.677022 900.649251 673.707743 899.30186 672.049377 898.576355 L 672.049377 896.555237 L 696.613525 896.555237 L 696.613525 898.576355 C 694.333333 899.30186 693.55599 900.649251 694.281494 902.61853 C 695.006999 904.587809 696.924459 908.319071 700.033875 913.812317 L 721.644104 952.368713 L 743.40979 913.812317 C 746.104574 909.044617 747.451965 905.442912 747.451965 903.007202 C 747.451965 900.571533 745.949097 899.094584 742.943359 898.576355 L 742.943359 896.555237 L 761.444214 896.555237 L 761.444214 898.576355 C 759.371297 899.30186 757.091085 900.649251 754.603577 902.61853 C 752.116069 904.587809 749.317627 908.319071 746.208252 913.812317 L 722.421448 956.099976 L 722.421448 985.639099 C 722.421448 991.961528 722.861938 996.314677 723.74292 998.698547 C 724.623901 1001.082377 726.256327 1002.637065 728.640198 1003.36261 L 728.640198 1005.383728 Z"/>
            <path id="path7" fill="#000000" stroke="none" d="M 819.749878 1005.383728 L 819.749878 1003.36261 C 822.133708 1002.637065 823.766134 1001.082377 824.647156 998.698547 C 825.528137 996.314677 825.968628 991.961528 825.968628 985.639099 L 825.968628 916.299805 C 825.968628 909.873779 825.528137 905.494731 824.647156 903.162659 C 823.766134 900.830627 822.133708 899.30186 819.749878 898.576355 L 819.749878 896.555237 L 844.935852 896.555237 L 844.935852 898.576355 C 842.551982 899.30186 840.919556 900.830627 840.038574 903.162659 C 839.157593 905.494731 838.717102 909.873779 838.717102 916.299805 L 838.717102 946.460876 L 897.950867 946.460876 L 897.950867 916.299805 C 897.950867 909.873779 897.510376 905.494731 896.629395 903.162659 C 895.748413 900.830627 894.115987 899.30186 891.732117 898.576355 L 891.732117 896.555237 L 916.918152 896.555237 L 916.918152 898.576355 C 914.534281 899.30186 912.901855 900.830627 912.020874 903.162659 C 911.139852 905.494731 910.699341 909.873779 910.699341 916.299805 L 910.699341 985.639099 C 910.699341 991.961528 911.139852 996.314677 912.020874 998.698547 C 912.901855 1001.082377 914.534281 1002.637065 916.918152 1003.36261 L 916.918152 1005.383728 L 891.732117 1005.383728 L 891.732117 1003.36261 C 894.115987 1002.637065 895.748413 1001.082377 896.629395 998.698547 C 897.510376 996.314677 897.950867 991.961528 897.950867 985.639099 L 897.950867 948.948364 L 838.717102 948.948364 L 838.717102 985.639099 C 838.717102 991.961528 839.157593 996.314677 840.038574 998.698547 C 840.919556 1001.082377 842.551982 1002.637065 844.935852 1003.36261 L 844.935852 1005.383728 Z"/>
            <path id="path8" fill="#000000" stroke="none" d="M 974.441345 1005.383728 L 974.441345 1003.36261 C 976.6179 1002.637065 978.742635 1001.211934 980.815552 999.087219 C 982.888509 996.962463 985.116903 992.946167 987.500732 987.03833 L 1018.128174 911.169373 C 1019.060994 908.681864 1018.957357 906.246175 1017.817261 903.862305 L 1016.41803 900.597412 L 1028.078247 895.311462 L 1066.323608 987.193787 C 1068.707479 992.997986 1070.858154 996.962463 1072.775635 999.087219 C 1074.693115 1001.211934 1076.480998 1002.637065 1078.139282 1003.36261 L 1078.139282 1005.383728 L 1054.041626 1005.383728 L 1054.041626 1003.36261 C 1056.425496 1002.637065 1057.410116 1001.211934 1056.995483 999.087219 C 1056.580933 996.962463 1055.129883 992.997986 1052.642334 987.193787 L 1043.158691 964.339844 L 999.316406 964.339844 L 990.143738 987.03833 C 986.20518 996.884725 986.827047 1002.326152 992.009338 1003.36261 L 992.009338 1005.383728 Z M 1000.249207 962.007813 L 1042.225952 962.007813 L 1020.926636 910.858398 Z"/>
            <path id="path9" fill="#000000" stroke="none" d="M 1219.1521 1006.627441 L 1145.926025 911.324829 L 1145.926025 979.420349 C 1145.926025 985.328186 1146.340617 989.888611 1147.1698 993.101624 C 1147.998983 996.314677 1149.216838 998.672628 1150.823364 1000.175476 C 1152.429891 1001.678365 1154.37325 1002.740743 1156.653442 1003.36261 L 1156.653442 1005.383728 L 1137.219849 1005.383728 L 1137.219849 1003.36261 C 1139.603719 1002.637065 1141.236125 1001.082377 1142.117065 998.698547 C 1142.998088 996.314677 1143.438599 991.961528 1143.438599 985.639099 L 1143.438599 916.299805 C 1143.438599 909.873779 1142.86853 905.494731 1141.728394 903.162659 C 1140.588257 900.830627 1138.463501 899.30186 1135.354126 898.576355 L 1135.354126 896.555237 L 1150.59021 896.555237 L 1218.530273 984.550842 L 1218.530273 922.518616 C 1218.530273 916.610779 1218.115682 912.024434 1217.286499 908.759583 C 1216.457316 905.494731 1215.265381 903.13678 1213.710693 901.68573 C 1212.156006 900.23468 1210.186727 899.198222 1207.802856 898.576355 L 1207.802856 896.555237 L 1227.391968 896.555237 L 1227.391968 898.576355 C 1225.008097 899.30186 1223.375651 900.830627 1222.494629 903.162659 C 1221.613688 905.494731 1221.173218 909.873779 1221.173218 916.299805 L 1221.173218 1006.627441 Z"/>
        </g>
        <text id="D--E-" visibility="hidden" xml:space="preserve"><tspan x="204" y="467" font-family="DM Serif Display" font-size="173.228409" fill="#000000" xml:space="preserve">D </tspan><tspan font-family="DM Serif Display" font-size="173.228409" fill="#000000" letter-spacing="1.28086" xml:space="preserve"> </tspan><tspan font-family="DM Serif Display" font-size="173.228409" fill="#000000" xml:space="preserve">E </tspan><tspan font-family="DM Serif Display" font-size="173.228409" fill="#000000" letter-spacing="1.28115" xml:space="preserve"> </tspan><tspan font-family="DM Serif Display" font-size="173.228409" fill="#000000" xml:space="preserve">N </tspan><tspan font-family="DM Serif Display" font-size="173.228409" fill="#000000" letter-spacing="1.280836" xml:space="preserve"> </tspan><tspan font-family="DM Serif Display" font-size="173.228409" fill="#000000" xml:space="preserve">T </tspan><tspan font-family="DM Serif Display" font-size="173.228409" fill="#000000" letter-spacing="1.280919" xml:space="preserve"> </tspan><tspan font-family="DM Serif Display" font-size="173.228409" fill="#000000" xml:space="preserve">A </tspan><tspan font-family="DM Serif Display" font-size="173.228409" fill="#000000" letter-spacing="1.280856" xml:space="preserve"> </tspan><tspan font-family="DM Serif Display" font-size="173.228409" fill="#000000" xml:space="preserve">L</tspan></text>
        <text id="C--L-" visibility="hidden" xml:space="preserve"><tspan x="262" y="697" font-family="DM Serif Display" font-size="173.228409" fill="#000000" xml:space="preserve">C </tspan><tspan font-family="DM Serif Display" font-size="173.228409" fill="#000000" letter-spacing="1.280999" xml:space="preserve"> </tspan><tspan font-family="DM Serif Display" font-size="173.228409" fill="#000000" xml:space="preserve">L </tspan><tspan font-family="DM Serif Display" font-size="173.228409" fill="#000000" letter-spacing="1.281196" xml:space="preserve"> </tspan><tspan font-family="DM Serif Display" font-size="173.228409" fill="#000000" xml:space="preserve">IN </tspan><tspan font-family="DM Serif Display" font-size="173.228409" fill="#000000" letter-spacing="1.280843" xml:space="preserve"> </tspan><tspan font-family="DM Serif Display" font-size="173.228409" fill="#000000" xml:space="preserve">IC</tspan></text>
        <path id="path10" fill="none" stroke="#000000" stroke-width="25.007999" visibility="hidden" d="M 88.571259 1024.324219 L 88.571259 823.779724"/>
    </g>
    <path id="path11" fill="none" stroke="none" visibility="hidden" d="M 131.96051 833.490784 L 1420.532715 833.490784 L 1420.532715 822.464722 L 131.96051 822.464722 Z"/>
    <path id="path12" fill="none" stroke="none" visibility="hidden" d="M 120.087715 1024.344727 L 145.095718 1024.344727 L 145.095718 823.800171 L 120.087715 823.800171 Z"/>
</svg>
