<svg width="121" height="47" viewBox="0 0 121 47" fill="none" xmlns="http://www.w3.org/2000/svg">
<path d="M11.5983 4.992C12.6649 4.992 13.4756 5.12 14.0303 5.376C14.5849 5.61067 15.0756 5.87733 15.5023 6.176C15.7583 6.32533 15.9609 6.44267 16.1103 6.528C16.2809 6.592 16.4409 6.624 16.5903 6.624C16.8036 6.624 16.9529 6.50667 17.0383 6.272C17.1449 6.03733 17.2303 5.68533 17.2943 5.216H18.0303C18.0089 5.57867 17.9769 6.016 17.9343 6.528C17.9129 7.01867 17.8916 7.68 17.8703 8.512C17.8703 9.32267 17.8703 10.4 17.8703 11.744H17.1343C17.0703 10.72 16.8463 9.73867 16.4623 8.8C16.0783 7.86133 15.5129 7.09333 14.7663 6.496C14.0409 5.89867 13.0809 5.6 11.8863 5.6C10.7556 5.6 9.81692 5.94133 9.07025 6.624C8.34492 7.30667 7.98225 8.20267 7.98225 9.312C7.98225 10.272 8.22758 11.0827 8.71825 11.744C9.20892 12.384 9.85958 12.9707 10.6703 13.504C11.5023 14.016 12.3983 14.5707 13.3583 15.168C14.4676 15.8507 15.4489 16.5333 16.3023 17.216C17.1769 17.8773 17.8596 18.6133 18.3503 19.424C18.8623 20.2347 19.1183 21.216 19.1183 22.368C19.1183 23.7333 18.8089 24.864 18.1903 25.76C17.5716 26.656 16.7503 27.328 15.7263 27.776C14.7023 28.224 13.5716 28.448 12.3343 28.448C11.2036 28.448 10.3076 28.32 9.64625 28.064C8.98492 27.808 8.41958 27.5413 7.95025 27.264C7.48092 26.9653 7.11825 26.816 6.86225 26.816C6.64892 26.816 6.48892 26.9333 6.38225 27.168C6.29692 27.4027 6.22225 27.7547 6.15825 28.224H5.42225C5.46492 27.776 5.48625 27.2533 5.48625 26.656C5.50758 26.0373 5.51825 25.2373 5.51825 24.256C5.53958 23.2747 5.55025 22.0373 5.55025 20.544H6.28625C6.37158 21.824 6.60625 23.0187 6.99025 24.128C7.39558 25.2373 8.00358 26.1333 8.81425 26.816C9.64625 27.4773 10.7449 27.808 12.1103 27.808C12.8143 27.808 13.4756 27.6693 14.0943 27.392C14.7343 27.0933 15.2569 26.6347 15.6623 26.016C16.0676 25.376 16.2703 24.5547 16.2703 23.552C16.2703 22.6773 16.0569 21.92 15.6303 21.28C15.2249 20.6187 14.6489 20.0107 13.9023 19.456C13.1556 18.88 12.2809 18.2933 11.2783 17.696C10.2756 17.0773 9.33692 16.448 8.46225 15.808C7.58758 15.168 6.88358 14.432 6.35025 13.6C5.83825 12.7467 5.58225 11.7227 5.58225 10.528C5.58225 9.26933 5.85958 8.23467 6.41425 7.424C6.99025 6.592 7.73692 5.984 8.65425 5.6C9.57158 5.19467 10.5529 4.992 11.5983 4.992ZM36.1435 11.168V24.544C36.1435 25.504 36.3142 26.2187 36.6555 26.688C37.0182 27.136 37.6582 27.36 38.5755 27.36V28.032C37.9142 27.968 37.2528 27.936 36.5915 27.936C35.9728 27.936 35.3755 27.968 34.7995 28.032C34.2448 28.096 33.7328 28.2133 33.2635 28.384V24.608C32.7302 25.9947 31.9728 26.9867 30.9915 27.584C30.0315 28.16 29.0395 28.448 28.0155 28.448C27.2688 28.448 26.6182 28.3413 26.0635 28.128C25.5088 27.9147 25.0502 27.616 24.6875 27.232C24.2822 26.8053 24.0048 26.2507 23.8555 25.568C23.7062 24.8853 23.6315 24.0427 23.6315 23.04V15.008C23.6315 14.048 23.4608 13.344 23.1195 12.896C22.7782 12.4267 22.1382 12.192 21.1995 12.192V11.52C21.8822 11.584 22.5435 11.616 23.1835 11.616C23.8022 11.616 24.3888 11.584 24.9435 11.52C25.5195 11.4347 26.0422 11.3173 26.5115 11.168V23.744C26.5115 24.4053 26.5542 25.0133 26.6395 25.568C26.7248 26.1227 26.9382 26.5707 27.2795 26.912C27.6208 27.2533 28.1755 27.424 28.9435 27.424C29.7755 27.424 30.5115 27.168 31.1515 26.656C31.8128 26.144 32.3248 25.4507 32.6875 24.576C33.0715 23.7013 33.2635 22.72 33.2635 21.632V15.008C33.2635 14.048 33.0928 13.344 32.7515 12.896C32.4102 12.4267 31.7702 12.192 30.8315 12.192V11.52C31.5142 11.584 32.1755 11.616 32.8155 11.616C33.4342 11.616 34.0208 11.584 34.5755 11.52C35.1515 11.4347 35.6742 11.3173 36.1435 11.168ZM45.2973 2.912V25.024C45.2973 25.92 45.4786 26.528 45.8413 26.848C46.2253 27.168 46.8546 27.328 47.7292 27.328V28C47.3666 27.9787 46.8119 27.9573 46.0653 27.936C45.3399 27.8933 44.6039 27.872 43.8573 27.872C43.1319 27.872 42.3959 27.8933 41.6493 27.936C40.9026 27.9573 40.3479 27.9787 39.9853 28V27.328C40.8599 27.328 41.4786 27.168 41.8413 26.848C42.2253 26.528 42.4173 25.92 42.4173 25.024V6.752C42.4173 5.792 42.2466 5.088 41.9053 4.64C41.5639 4.17067 40.9239 3.936 39.9853 3.936V3.264C40.6679 3.328 41.3293 3.36 41.9693 3.36C42.5879 3.36 43.1746 3.328 43.7293 3.264C44.3053 3.17867 44.8279 3.06133 45.2973 2.912ZM64.2455 11.52V12.16C63.8402 12.2027 63.4668 12.384 63.1255 12.704C62.7842 13.024 62.4642 13.5893 62.1655 14.4L56.9175 28.16H56.3735L50.4855 13.984C50.0802 13.152 49.6748 12.6507 49.2695 12.48C48.8855 12.288 48.5655 12.192 48.3095 12.192V11.52C48.7788 11.584 49.2695 11.6373 49.7815 11.68C50.2935 11.7013 50.8482 11.712 51.4455 11.712C52.1068 11.712 52.8002 11.6907 53.5255 11.648C54.2722 11.6053 54.9655 11.5627 55.6055 11.52V12.192C55.0722 12.192 54.5922 12.2347 54.1655 12.32C53.7602 12.384 53.5042 12.608 53.3975 12.992C53.2908 13.3547 53.4188 13.984 53.7815 14.88L57.7175 24.64L57.5255 24.704L61.1735 15.168C61.4508 14.464 61.5575 13.9093 61.4935 13.504C61.4508 13.0773 61.2375 12.7573 60.8535 12.544C60.4695 12.3307 59.8935 12.2027 59.1255 12.16V11.52C59.5095 11.5413 59.8402 11.5627 60.1175 11.584C60.3948 11.584 60.6615 11.5947 60.9175 11.616C61.1948 11.616 61.4935 11.616 61.8135 11.616C62.3042 11.616 62.7415 11.6053 63.1255 11.584C63.5308 11.5627 63.9042 11.5413 64.2455 11.52ZM56.9175 28.16L55.8295 30.944C55.6162 31.4773 55.3922 31.9253 55.1575 32.288C54.9442 32.6507 54.7095 32.9493 54.4535 33.184C54.1122 33.504 53.7068 33.7173 53.2375 33.824C52.7682 33.952 52.3415 34.016 51.9575 34.016C51.5522 34.016 51.1788 33.9413 50.8375 33.792C50.5175 33.6427 50.2615 33.4187 50.0695 33.12C49.8775 32.8427 49.7815 32.5013 49.7815 32.096C49.7815 31.584 49.9308 31.168 50.2295 30.848C50.5282 30.5493 50.9442 30.4 51.4775 30.4C51.9255 30.4 52.3095 30.528 52.6295 30.784C52.9495 31.04 53.1095 31.4133 53.1095 31.904C53.1095 32.2667 53.0242 32.5653 52.8535 32.8C52.6828 33.0347 52.4802 33.216 52.2455 33.344C52.2882 33.3653 52.3202 33.376 52.3415 33.376C52.3842 33.376 52.4162 33.376 52.4375 33.376C53.0135 33.376 53.5255 33.1733 53.9735 32.768C54.4215 32.384 54.8162 31.7547 55.1575 30.88L56.3095 27.904L56.9175 28.16ZM69.702 2.944V14.912C70.2567 13.4613 71.0247 12.4587 72.006 11.904C73.0087 11.3493 74.054 11.072 75.142 11.072C75.9527 11.072 76.6247 11.1787 77.158 11.392C77.7127 11.6053 78.1713 11.904 78.534 12.288C78.9393 12.7147 79.2273 13.248 79.398 13.888C79.5687 14.528 79.654 15.392 79.654 16.48V25.024C79.654 25.92 79.8353 26.528 80.198 26.848C80.582 27.168 81.2113 27.328 82.086 27.328V28C81.7233 27.9787 81.1687 27.9573 80.422 27.936C79.6753 27.8933 78.95 27.872 78.246 27.872C77.542 27.872 76.8487 27.8933 76.166 27.936C75.5047 27.9573 75.0033 27.9787 74.662 28V27.328C75.43 27.328 75.974 27.168 76.294 26.848C76.614 26.528 76.774 25.92 76.774 25.024V15.776C76.774 15.1147 76.7207 14.5067 76.614 13.952C76.5073 13.3973 76.262 12.9493 75.878 12.608C75.5153 12.2667 74.95 12.096 74.182 12.096C73.3073 12.096 72.5287 12.3413 71.846 12.832C71.1847 13.3227 70.662 14.0053 70.278 14.88C69.894 15.7547 69.702 16.7573 69.702 17.888V25.024C69.702 25.92 69.862 26.528 70.182 26.848C70.502 27.168 71.046 27.328 71.814 27.328V28C71.4727 27.9787 70.9607 27.9573 70.278 27.936C69.6167 27.8933 68.934 27.872 68.23 27.872C67.526 27.872 66.8007 27.8933 66.054 27.936C65.3073 27.9573 64.7527 27.9787 64.39 28V27.328C65.2647 27.328 65.8833 27.168 66.246 26.848C66.63 26.528 66.822 25.92 66.822 25.024V6.784C66.822 5.824 66.6513 5.12 66.31 4.672C65.9687 4.20267 65.3287 3.968 64.39 3.968V3.296C65.0727 3.36 65.734 3.392 66.374 3.392C66.9927 3.392 67.5793 3.36 68.134 3.296C68.71 3.21067 69.2327 3.09333 69.702 2.944ZM88.0345 28.224C87.1598 28.224 86.4025 28.064 85.7625 27.744C85.1225 27.4027 84.6318 26.9333 84.2905 26.336C83.9705 25.7387 83.8105 25.0453 83.8105 24.256C83.8105 23.3173 84.0238 22.5493 84.4505 21.952C84.8985 21.3547 85.4638 20.8747 86.1465 20.512C86.8292 20.1493 87.5438 19.8507 88.2905 19.616C89.0585 19.36 89.7838 19.1253 90.4665 18.912C91.1492 18.6773 91.7038 18.4107 92.1305 18.112C92.5785 17.8133 92.8025 17.4187 92.8025 16.928V14.944C92.8025 14.048 92.6638 13.3653 92.3865 12.896C92.1305 12.4267 91.7785 12.1173 91.3305 11.968C90.8825 11.7973 90.3812 11.712 89.8265 11.712C89.2932 11.712 88.7172 11.7867 88.0985 11.936C87.5012 12.0853 87.0212 12.3947 86.6585 12.864C87.0638 12.9493 87.4158 13.1627 87.7145 13.504C88.0132 13.8453 88.1625 14.2827 88.1625 14.816C88.1625 15.3493 87.9918 15.776 87.6505 16.096C87.3092 16.3947 86.8718 16.544 86.3385 16.544C85.7198 16.544 85.2612 16.352 84.9625 15.968C84.6852 15.5627 84.5465 15.1147 84.5465 14.624C84.5465 14.0693 84.6852 13.6213 84.9625 13.28C85.2398 12.9387 85.5918 12.6187 86.0185 12.32C86.5092 11.9787 87.1385 11.6907 87.9065 11.456C88.6958 11.2 89.5812 11.072 90.5625 11.072C91.4372 11.072 92.1838 11.1787 92.8025 11.392C93.4212 11.584 93.9332 11.872 94.3385 12.256C94.8932 12.768 95.2558 13.3973 95.4265 14.144C95.5972 14.8693 95.6825 15.744 95.6825 16.768V25.664C95.6825 26.1973 95.7572 26.5813 95.9065 26.816C96.0772 27.0507 96.3332 27.168 96.6745 27.168C96.9092 27.168 97.1332 27.1147 97.3465 27.008C97.5598 26.9013 97.8158 26.7307 98.1145 26.496L98.4665 27.04C98.0185 27.3813 97.5918 27.6693 97.1865 27.904C96.7812 28.1173 96.2372 28.224 95.5545 28.224C94.9358 28.224 94.4238 28.1173 94.0185 27.904C93.6132 27.6907 93.3038 27.3813 93.0905 26.976C92.8985 26.5493 92.8025 26.016 92.8025 25.376C92.2265 26.336 91.5332 27.0507 90.7225 27.52C89.9332 27.9893 89.0372 28.224 88.0345 28.224ZM89.1865 26.944C89.8905 26.944 90.5412 26.7413 91.1385 26.336C91.7572 25.9307 92.3118 25.3227 92.8025 24.512V18.24C92.5465 18.6027 92.1732 18.912 91.6825 19.168C91.1918 19.4027 90.6585 19.648 90.0825 19.904C89.5065 20.1387 88.9518 20.4267 88.4185 20.768C87.9065 21.088 87.4798 21.5147 87.1385 22.048C86.7972 22.5813 86.6265 23.2747 86.6265 24.128C86.6265 24.9813 86.8505 25.664 87.2985 26.176C87.7678 26.688 88.3972 26.944 89.1865 26.944ZM110.18 11.072C110.991 11.072 111.663 11.1787 112.196 11.392C112.751 11.6053 113.209 11.904 113.572 12.288C113.977 12.7147 114.265 13.248 114.436 13.888C114.607 14.528 114.692 15.392 114.692 16.48V25.024C114.692 25.92 114.873 26.528 115.236 26.848C115.62 27.168 116.249 27.328 117.124 27.328V28C116.761 27.9787 116.207 27.9573 115.46 27.936C114.713 27.8933 113.988 27.872 113.284 27.872C112.58 27.872 111.887 27.8933 111.204 27.936C110.543 27.9573 110.041 27.9787 109.7 28V27.328C110.468 27.328 111.012 27.168 111.332 26.848C111.652 26.528 111.812 25.92 111.812 25.024V15.776C111.812 15.1147 111.759 14.5067 111.652 13.952C111.545 13.3973 111.3 12.9493 110.916 12.608C110.553 12.2667 109.988 12.096 109.22 12.096C108.324 12.096 107.535 12.352 106.852 12.864C106.191 13.376 105.668 14.08 105.284 14.976C104.921 15.8507 104.74 16.832 104.74 17.92V25.024C104.74 25.92 104.9 26.528 105.22 26.848C105.54 27.168 106.084 27.328 106.852 27.328V28C106.511 27.9787 105.999 27.9573 105.316 27.936C104.655 27.8933 103.972 27.872 103.268 27.872C102.564 27.872 101.839 27.8933 101.092 27.936C100.345 27.9573 99.7907 27.9787 99.428 28V27.328C100.303 27.328 100.921 27.168 101.284 26.848C101.668 26.528 101.86 25.92 101.86 25.024V15.008C101.86 14.048 101.689 13.344 101.348 12.896C101.007 12.4267 100.367 12.192 99.428 12.192V11.52C100.111 11.584 100.772 11.616 101.412 11.616C102.031 11.616 102.617 11.584 103.172 11.52C103.748 11.4347 104.271 11.3173 104.74 11.168V14.944C105.295 13.4933 106.063 12.4907 107.044 11.936C108.047 11.36 109.092 11.072 110.18 11.072Z" fill="#22282B"/>
<path d="M3.09383 44V35.48H5.98583C6.88983 35.48 7.64183 35.672 8.24183 36.056C8.84983 36.432 9.30583 36.944 9.60983 37.592C9.91383 38.232 10.0658 38.944 10.0658 39.728C10.0658 40.592 9.89783 41.344 9.56183 41.984C9.23383 42.624 8.76183 43.12 8.14583 43.472C7.53783 43.824 6.81783 44 5.98583 44H3.09383ZM9.22583 39.728C9.22583 39.048 9.09783 38.444 8.84183 37.916C8.59383 37.388 8.22983 36.976 7.74983 36.68C7.26983 36.376 6.68183 36.224 5.98583 36.224H3.93383V43.256H5.98583C6.68983 43.256 7.28183 43.1 7.76183 42.788C8.24183 42.476 8.60583 42.056 8.85383 41.528C9.10183 40.992 9.22583 40.392 9.22583 39.728ZM19.796 43.256V44H14.072V35.48H19.688V36.224H14.912V39.296H19.076V40.004H14.912V43.256H19.796ZM24.6244 37.028V44H23.7844V35.48H24.4804L30.0725 42.584V35.492H30.9125V44H30.1325L24.6244 37.028ZM41.502 36.224H38.466V44H37.626V36.224H34.59V35.48H41.502V36.224ZM46.9979 35.48H47.7059L51.2459 44H50.3579L49.2539 41.336H45.4259L44.3339 44H43.4339L46.9979 35.48ZM49.0619 40.676L47.3459 36.464L45.6059 40.676H49.0619ZM54.8673 44V35.48H55.7073V43.256H60.6273V44H54.8673ZM68.8064 39.68C68.8064 39.16 68.8944 38.652 69.0704 38.156C69.2544 37.652 69.5184 37.196 69.8624 36.788C70.2064 36.372 70.6304 36.044 71.1344 35.804C71.6384 35.556 72.2104 35.432 72.8504 35.432C73.6104 35.432 74.2584 35.608 74.7944 35.96C75.3384 36.304 75.7384 36.748 75.9944 37.292L75.3344 37.7C75.1504 37.324 74.9184 37.028 74.6384 36.812C74.3584 36.588 74.0584 36.428 73.7384 36.332C73.4264 36.236 73.1144 36.188 72.8024 36.188C72.2904 36.188 71.8384 36.292 71.4464 36.5C71.0544 36.7 70.7224 36.972 70.4504 37.316C70.1864 37.652 69.9864 38.032 69.8504 38.456C69.7144 38.872 69.6464 39.296 69.6464 39.728C69.6464 40.2 69.7264 40.652 69.8864 41.084C70.0464 41.516 70.2704 41.9 70.5584 42.236C70.8464 42.564 71.1824 42.828 71.5664 43.028C71.9584 43.22 72.3824 43.316 72.8384 43.316C73.1584 43.316 73.4864 43.26 73.8224 43.148C74.1584 43.036 74.4704 42.864 74.7584 42.632C75.0544 42.4 75.2904 42.1 75.4664 41.732L76.1624 42.092C75.9864 42.516 75.7144 42.876 75.3464 43.172C74.9784 43.468 74.5664 43.692 74.1104 43.844C73.6624 43.996 73.2224 44.072 72.7904 44.072C72.2064 44.072 71.6704 43.948 71.1824 43.7C70.6944 43.444 70.2704 43.108 69.9104 42.692C69.5584 42.268 69.2864 41.796 69.0944 41.276C68.9024 40.748 68.8064 40.216 68.8064 39.68ZM79.9969 44V35.48H80.8369V43.256H85.7569V44H79.9969ZM89.393 44V35.48H90.233V44H89.393ZM95.6096 37.028V44H94.7696V35.48H95.4656L101.058 42.584V35.492H101.898V44H101.118L95.6096 37.028ZM106.439 44V35.48H107.279V44H106.439ZM111.252 39.68C111.252 39.16 111.34 38.652 111.516 38.156C111.7 37.652 111.964 37.196 112.308 36.788C112.652 36.372 113.076 36.044 113.58 35.804C114.084 35.556 114.656 35.432 115.296 35.432C116.056 35.432 116.704 35.608 117.24 35.96C117.784 36.304 118.184 36.748 118.44 37.292L117.78 37.7C117.596 37.324 117.364 37.028 117.084 36.812C116.804 36.588 116.504 36.428 116.184 36.332C115.872 36.236 115.56 36.188 115.248 36.188C114.736 36.188 114.284 36.292 113.892 36.5C113.5 36.7 113.168 36.972 112.896 37.316C112.632 37.652 112.432 38.032 112.296 38.456C112.16 38.872 112.092 39.296 112.092 39.728C112.092 40.2 112.172 40.652 112.332 41.084C112.492 41.516 112.716 41.9 113.004 42.236C113.292 42.564 113.628 42.828 114.012 43.028C114.404 43.22 114.828 43.316 115.284 43.316C115.604 43.316 115.932 43.26 116.268 43.148C116.604 43.036 116.916 42.864 117.204 42.632C117.5 42.4 117.736 42.1 117.912 41.732L118.608 42.092C118.432 42.516 118.16 42.876 117.792 43.172C117.424 43.468 117.012 43.692 116.556 43.844C116.108 43.996 115.668 44.072 115.236 44.072C114.652 44.072 114.116 43.948 113.628 43.7C113.14 43.444 112.716 43.108 112.356 42.692C112.004 42.268 111.732 41.796 111.54 41.276C111.348 40.748 111.252 40.216 111.252 39.68Z" fill="#22282B"/>
<path d="M25.7245 0L26.1802 3.84515L29.093 1.46447L26.8248 4.52165L30.4883 5L26.8248 5.47835L29.093 8.53553L26.1802 6.15485L25.7245 10L25.2687 6.15485L22.356 8.53553L24.6242 5.47835L20.9607 5L24.6242 4.52165L22.356 1.46447L25.2687 3.84515L25.7245 0Z" fill="#22282B"/>
</svg>
