<svg width="38" height="48" viewBox="0 0 38 48" fill="none" xmlns="http://www.w3.org/2000/svg">
<path d="M19.2533 11.8589V25.0043" stroke="#424143" stroke-width="3" stroke-miterlimit="10"/>
<path d="M11.859 18.4321H25.826" stroke="#424143" stroke-width="3" stroke-miterlimit="10"/>
<path d="M19.0003 2C9.62638 2 2 9.62627 2 19.0002C2 22.7331 3.18713 26.2762 5.43346 29.2458C7.34543 31.7738 9.96627 33.7395 12.9071 34.8737V39.4515C12.9071 41.107 14.1088 42.4872 15.6853 42.7659C15.9641 44.3425 17.3447 45.5441 19.0003 45.5441C20.6557 45.5441 22.036 44.3425 22.3147 42.7659C23.8917 42.4872 25.0929 41.107 25.0929 39.4515V34.8741C28.0333 33.7399 30.6538 31.7747 32.5657 29.2471C34.8126 26.2771 36 22.7337 36 19.0003C36 9.62627 28.3742 2 19.0003 2Z" stroke="#424143" stroke-width="3" stroke-miterlimit="10"/>
<path d="M24.7086 5.9146C24.0179 5.61294 23.2977 5.36497 22.5682 5.17676" stroke="#424143" stroke-width="3" stroke-miterlimit="10"/>
<path d="M30.9223 11.149C30.014 9.77263 28.8847 8.5723 27.5653 7.58105" stroke="#424143" stroke-width="3" stroke-miterlimit="10"/>
<path d="M25.0045 34.8633H12.6807" stroke="#424143" stroke-width="3" stroke-miterlimit="10"/>
<path d="M15.1454 43.0791H21.7181" stroke="#424143" stroke-width="3" stroke-miterlimit="10"/>
<path d="M25.826 38.1499H22.5397" stroke="#424143" stroke-width="3" stroke-miterlimit="10"/>
<path d="M20.0749 38.1499H12.6807" stroke="#424143" stroke-width="3" stroke-miterlimit="10"/>
</svg>
