<?xml version="1.0" encoding="utf-8"?>
<!-- Generator: Adobe Illustrator 16.0.0, SVG Export Plug-In . SVG Version: 6.00 Build 0)  -->
<!DOCTYPE svg PUBLIC "-//W3C//DTD SVG 1.1//EN" "http://www.w3.org/Graphics/SVG/1.1/DTD/svg11.dtd">
<svg version="1.1" id="Capa_1" xmlns="http://www.w3.org/2000/svg" xmlns:xlink="http://www.w3.org/1999/xlink" x="0px" y="0px"
	 width="512px" height="512px" viewBox="0 0 512 512" enable-background="new 0 0 512 512" xml:space="preserve">
<line fill="none" stroke="#424143" stroke-width="14.1732" stroke-miterlimit="10" x1="256" y1="175.908" x2="256" y2="336.092"/>
<line fill="none" stroke="#424143" stroke-width="14.1732" stroke-miterlimit="10" x1="175.908" y1="256" x2="336.091" y2="256"/>
<g>
	<g>
		<path fill="none" stroke="#424143" stroke-width="14.1732" stroke-miterlimit="10" d="M450.318,182.821
			c-5.678-62.642-50.021-108.094-105.531-108.094c-36.946,0-70.818,19.921-89.854,51.777C236.07,94.206,203.59,74.727,167.23,74.727
			c-55.518,0-99.855,45.453-105.536,108.094c-0.468,2.783-2.302,17.319,3.3,41.086c8.093,34.273,26.764,65.436,54.017,90.079
			l135.842,123.287l138.158-123.252c27.241-24.681,45.916-55.841,54.009-90.115C452.622,200.178,450.757,185.604,450.318,182.821
			L450.318,182.821z"/>
	</g>
	<path fill="none" stroke="#424143" stroke-width="14.1732" stroke-miterlimit="10" d="M121.012,195.306
		c0-33.101,26.924-60.014,60.021-60.014"/>
</g>
</svg>
