<svg width="26" height="27" viewBox="0 0 26 27" fill="none" xmlns="http://www.w3.org/2000/svg">
<path d="M14.1136 2.85875C14.9042 2.85572 15.6947 2.86367 16.4851 2.88259L16.6952 2.89017C16.9379 2.89884 17.1773 2.90967 17.4666 2.92267C18.6192 2.97684 19.4057 3.15884 20.0958 3.42642C20.8108 3.70159 21.4131 4.07425 22.0155 4.67659C22.5662 5.21783 22.9925 5.87253 23.2646 6.59517C23.5321 7.28525 23.7141 8.07284 23.7683 9.2255C23.7813 9.51367 23.7921 9.75417 23.8008 9.99684L23.8073 10.207C23.8266 10.997 23.8349 11.7872 23.8322 12.5773L23.8333 13.3855V14.8047C23.836 15.5952 23.8277 16.3858 23.8084 17.1761L23.8019 17.3863C23.7932 17.6289 23.7824 17.8683 23.7694 18.1576C23.7152 19.3103 23.5311 20.0968 23.2646 20.7868C22.9933 21.5102 22.567 22.1655 22.0155 22.7065C21.4738 23.2572 20.8187 23.6834 20.0958 23.9556C19.4057 24.2232 18.6192 24.4052 17.4666 24.4593C17.1773 24.4723 16.9379 24.4832 16.6952 24.4918L16.4851 24.4983C15.6947 24.5176 14.9042 24.5259 14.1136 24.5233L13.3055 24.5243H11.8874C11.0968 24.527 10.3063 24.5187 9.51597 24.4994L9.30581 24.4929C9.04864 24.4836 8.79152 24.4728 8.53447 24.4604C7.38181 24.4063 6.59531 24.2221 5.90414 23.9556C5.18121 23.684 4.5264 23.2577 3.98556 22.7065C3.43419 22.1651 3.00755 21.51 2.73539 20.7868C2.46781 20.0968 2.28581 19.3103 2.23164 18.1576C2.21958 17.9005 2.20874 17.6434 2.19914 17.3863L2.19372 17.1761C2.17375 16.3858 2.16472 15.5952 2.16664 14.8047V12.5773C2.16362 11.7872 2.17156 10.997 2.19047 10.207L2.19806 9.99684C2.20672 9.75417 2.21756 9.51367 2.23056 9.2255C2.28472 8.07175 2.46672 7.28634 2.73431 6.59517C3.00663 5.87218 3.4341 5.21765 3.98664 4.67767C4.52711 4.12599 5.18152 3.69896 5.90414 3.42642C6.59531 3.15884 7.38072 2.97684 8.53447 2.92267L9.30581 2.89017L9.51597 2.88475C10.3059 2.86479 11.0961 2.85576 11.8863 2.85767L14.1136 2.85875ZM13 8.27542C12.2823 8.26527 11.5697 8.39786 10.9037 8.66549C10.2377 8.93313 9.63151 9.33046 9.12039 9.8344C8.60927 10.3383 8.20341 10.9388 7.92639 11.601C7.64936 12.2632 7.50671 12.9738 7.50671 13.6915C7.50671 14.4093 7.64936 15.1199 7.92639 15.7821C8.20341 16.4443 8.60927 17.0448 9.12039 17.5487C9.63151 18.0526 10.2377 18.45 10.9037 18.7176C11.5697 18.9852 12.2823 19.1178 13 19.1077C14.4366 19.1077 15.8143 18.537 16.8301 17.5212C17.846 16.5053 18.4166 15.1276 18.4166 13.691C18.4166 12.2544 17.846 10.8767 16.8301 9.86084C15.8143 8.84502 14.4366 8.27542 13 8.27542ZM13 10.4421C13.4317 10.4341 13.8607 10.5123 14.2618 10.672C14.663 10.8317 15.0283 11.0697 15.3365 11.3722C15.6446 11.6746 15.8894 12.0355 16.0565 12.4336C16.2237 12.8318 16.3098 13.2592 16.3098 13.691C16.3099 14.1228 16.2239 14.5503 16.057 14.9485C15.89 15.3466 15.6453 15.7076 15.3373 16.0101C15.0292 16.3127 14.664 16.5509 14.2628 16.7107C13.8617 16.8705 13.4328 16.9488 13.0011 16.941C12.1391 16.941 11.3125 16.5986 10.703 15.9891C10.0935 15.3796 9.75106 14.553 9.75106 13.691C9.75106 12.8291 10.0935 12.0024 10.703 11.3929C11.3125 10.7834 12.1391 10.441 13.0011 10.441L13 10.4421ZM18.6875 6.65042C18.338 6.66441 18.0075 6.81308 17.7651 7.06531C17.5228 7.31753 17.3875 7.65373 17.3875 8.0035C17.3875 8.35328 17.5228 8.68948 17.7651 8.9417C18.0075 9.19393 18.338 9.3426 18.6875 9.35659C19.0466 9.35659 19.3911 9.21392 19.645 8.95996C19.899 8.70601 20.0416 8.36157 20.0416 8.00242C20.0416 7.64327 19.899 7.29884 19.645 7.04488C19.3911 6.79093 19.0466 6.64826 18.6875 6.64826V6.65042Z" fill="#3C5557"/>
</svg>
