<svg width="19" height="23" viewBox="0 0 19 23" fill="none" xmlns="http://www.w3.org/2000/svg">
<path d="M7.69751 5.45039C7.45021 2.15542 4.48262 0.538685 4.35703 0.472696C4.23962 0.408766 4.10805 0.388341 3.98025 0.414205C0.55431 1.0726 0.0389948 3.38222 0.0182786 3.47821C-0.00990668 3.61197 -0.00542381 3.75217 0.0312262 3.88314C4.1175 18.5688 12.6098 21.2908 15.4013 22.1862C15.6163 22.2552 15.7937 22.3107 15.9283 22.3616C16.082 22.4198 16.2489 22.4086 16.3957 22.3302C16.4812 22.2852 18.4984 21.1843 18.9917 17.5939C19.0136 17.4372 18.9918 17.2764 18.9296 17.135C18.8856 17.036 17.8303 14.7099 14.9042 13.888C14.8049 13.8586 14.7009 13.8576 14.6013 13.885C14.5016 13.9124 14.4091 13.9675 14.3319 14.0455C13.4087 14.9588 12.1334 15.9322 11.5831 16.0327C7.89432 13.9435 5.83435 9.93466 5.75666 9.17428C5.71135 8.74685 6.55683 7.2456 7.52919 6.0248C7.59031 5.94796 7.63686 5.85716 7.66585 5.75823C7.69484 5.6593 7.70562 5.55444 7.69751 5.45039Z" fill="#22282B"/>
</svg>
