<svg width="26" height="27" viewBox="0 0 26 27" fill="none" xmlns="http://www.w3.org/2000/svg">
<path fill-rule="evenodd" clip-rule="evenodd" d="M23.6363 7.34883C22.8968 7.67649 22.1034 7.8987 21.2698 7.99791C22.121 7.48819 22.7725 6.67969 23.0814 5.71927C22.2829 6.1913 21.4016 6.53406 20.4625 6.71987C19.7105 5.91765 18.6408 5.41797 17.4544 5.41797C15.1783 5.41797 13.3328 7.26348 13.3328 9.53835C13.3328 9.86098 13.3692 10.1761 13.4395 10.4774C10.0147 10.3054 6.97777 8.66455 4.94521 6.17121C4.58991 6.77887 4.38778 7.48691 4.38778 8.24271C4.38778 9.67268 5.11595 10.9344 6.22075 11.6726C5.54531 11.65 4.91005 11.4642 4.35391 11.1553V11.2068C4.35391 13.203 5.77507 14.8689 7.65948 15.2481C7.31423 15.341 6.95016 15.3925 6.57352 15.3925C6.30738 15.3925 6.05001 15.3661 5.79766 15.3159C6.32242 16.9543 7.84404 18.1457 9.64687 18.1783C8.237 19.2831 6.45928 19.9397 4.52842 19.9397C4.19574 19.9397 3.86805 19.9196 3.54541 19.8832C5.36958 21.0546 7.53523 21.7375 9.86282 21.7375C17.4444 21.7375 21.5887 15.4578 21.5887 10.0117L21.5749 9.47811C22.3846 8.90056 23.0851 8.17492 23.6363 7.34883Z" fill="#3C5557"/>
<mask id="mask0_69_149" style="mask-type:luminance" maskUnits="userSpaceOnUse" x="3" y="5" width="21" height="17">
<path fill-rule="evenodd" clip-rule="evenodd" d="M23.6363 7.34883C22.8968 7.67649 22.1034 7.8987 21.2698 7.99791C22.121 7.48819 22.7725 6.67969 23.0814 5.71927C22.2829 6.1913 21.4016 6.53406 20.4625 6.71987C19.7105 5.91765 18.6408 5.41797 17.4544 5.41797C15.1783 5.41797 13.3328 7.26348 13.3328 9.53835C13.3328 9.86098 13.3692 10.1761 13.4395 10.4774C10.0147 10.3054 6.97777 8.66455 4.94521 6.17121C4.58991 6.77887 4.38778 7.48691 4.38778 8.24271C4.38778 9.67268 5.11595 10.9344 6.22075 11.6726C5.54531 11.65 4.91005 11.4642 4.35391 11.1553V11.2068C4.35391 13.203 5.77507 14.8689 7.65948 15.2481C7.31423 15.341 6.95016 15.3925 6.57352 15.3925C6.30738 15.3925 6.05001 15.3661 5.79766 15.3159C6.32242 16.9543 7.84404 18.1457 9.64687 18.1783C8.237 19.2831 6.45928 19.9397 4.52842 19.9397C4.19574 19.9397 3.86805 19.9196 3.54541 19.8832C5.36958 21.0546 7.53523 21.7375 9.86282 21.7375C17.4444 21.7375 21.5887 15.4578 21.5887 10.0117L21.5749 9.47811C22.3846 8.90056 23.0851 8.17492 23.6363 7.34883Z" fill="white"/>
</mask>
<g mask="url(#mask0_69_149)">
</g>
</svg>
