<svg width="12" height="12" viewBox="0 0 12 12" fill="none" xmlns="http://www.w3.org/2000/svg">
<path d="M5.99574 0.166641C9.21525 0.166641 11.825 2.77822 11.825 5.99997C11.825 9.22172 9.21525 11.8333 5.99574 11.8333C4.96557 11.835 3.95354 11.5622 3.06361 11.0429L0.168783 11.8333L0.956902 8.93531C0.437567 8.04448 0.16473 7.03131 0.166451 5.99997C0.166451 2.77822 2.77622 0.166641 5.99574 0.166641ZM4.00912 3.25831L3.89253 3.26297C3.81705 3.26757 3.74329 3.28742 3.67568 3.32131C3.61245 3.35714 3.55472 3.40194 3.5043 3.45431C3.43435 3.52022 3.39471 3.57739 3.35216 3.63281C3.13654 3.91333 3.02045 4.25774 3.02222 4.61164C3.02338 4.89747 3.098 5.17572 3.21458 5.43589C3.453 5.96206 3.84531 6.51914 4.36295 7.03539C4.4877 7.15964 4.61012 7.28447 4.74186 7.40056C5.38505 7.96724 6.15153 8.37591 6.9803 8.59406L7.31141 8.64481C7.41925 8.65064 7.52709 8.64247 7.63551 8.63722C7.80529 8.62845 7.97106 8.58245 8.12109 8.50247C8.19743 8.46313 8.27193 8.4203 8.34436 8.37414C8.34436 8.37414 8.36942 8.35781 8.41722 8.32164C8.49592 8.26331 8.5443 8.22189 8.60959 8.15364C8.65797 8.10347 8.69994 8.04456 8.732 7.97747C8.77747 7.88239 8.82294 7.70097 8.84159 7.54989C8.85558 7.43439 8.8515 7.37139 8.84975 7.33231C8.84742 7.26989 8.79554 7.20514 8.739 7.17772L8.39973 7.02547C8.39973 7.02547 7.89259 6.80439 7.58247 6.66322C7.55002 6.64905 7.51524 6.64094 7.47987 6.63931C7.43999 6.63521 7.39969 6.6397 7.36168 6.65248C7.32368 6.66526 7.28885 6.68602 7.25953 6.71339C7.25661 6.71222 7.21755 6.74547 6.7961 7.25647C6.77191 7.289 6.73859 7.31358 6.70038 7.32709C6.66218 7.3406 6.62082 7.34241 6.58158 7.33231C6.54361 7.32212 6.5064 7.30925 6.47024 7.29381C6.39796 7.26347 6.37289 7.25181 6.32334 7.23081C5.98878 7.08471 5.67902 6.88731 5.40523 6.64572C5.33178 6.58156 5.26358 6.51156 5.19363 6.44389C4.96429 6.22411 4.76443 5.97548 4.59904 5.70422L4.56465 5.64881C4.53994 5.61157 4.51997 5.5714 4.50519 5.52922C4.48304 5.44347 4.54075 5.37464 4.54075 5.37464C4.54075 5.37464 4.6824 5.21947 4.74827 5.13547C4.81239 5.05381 4.8666 4.97447 4.90158 4.91789C4.97036 4.80706 4.99193 4.69331 4.95579 4.60522C4.79257 4.20622 4.62352 3.80897 4.44981 3.41464C4.41542 3.33647 4.3134 3.28047 4.22072 3.26939C4.18924 3.26589 4.15776 3.26239 4.12628 3.26006C4.048 3.25617 3.96956 3.25695 3.89136 3.26239L4.00853 3.25772L4.00912 3.25831Z" fill="#22282B"/>
</svg>
